<svg xmlns="http://www.w3.org/2000/svg" xmlns:xlink="http://www.w3.org/1999/xlink" width="1004.069" height="316.112" viewBox="0 0 1004.069 316.112">
  <defs>
    <clipPath id="clip-path">
      <path id="Path_13" data-name="Path 13" d="M258.994,15.893a7.68,7.68,0,0,0,1.327-4.624,8.043,8.043,0,0,0-2.453-6.635A12.386,12.386,0,0,0,249.825,2.5H241.26V31.858h4.866V20.236h4.424l6.8,11.621h5.509l-7.761-12.948a8.042,8.042,0,0,0,3.9-3.016Zm-9.289.322h-3.539V6.805h3.5a7.761,7.761,0,0,1,4.464,1.046,4.021,4.021,0,0,1,1.408,3.539,4.383,4.383,0,0,1-1.608,3.458,6.153,6.153,0,0,1-4.222,1.367Z" transform="translate(-241.26 -2.459)" fill="none"/>
    </clipPath>
    <clipPath id="clip-path-2">
      <path id="Path_14" data-name="Path 14" d="M283.372,12.306A24.731,24.731,0,0,0,262.019,0a24.537,24.537,0,0,0-21.353,12.345,24.65,24.65,0,0,0,0,24.489,24.128,24.128,0,0,0,8.927,9.048A23.886,23.886,0,0,0,262.1,49.3a24.6,24.6,0,0,0,24.69-24.57,24.127,24.127,0,0,0-3.418-12.426Zm-2.976,23a21.145,21.145,0,0,1-36.594-.04,20.629,20.629,0,0,1-2.855-10.616A20.711,20.711,0,0,1,243.8,14.035,21.164,21.164,0,0,1,280.4,35.307Z" transform="translate(-237.41 0)" fill="none"/>
    </clipPath>
    <linearGradient id="linear-gradient" y1="0.5" x2="1" y2="0.5" gradientUnits="objectBoundingBox">
      <stop offset="0.31" stop-color="#222370"/>
      <stop offset="0.99" stop-color="#222370"/>
    </linearGradient>
    <linearGradient id="linear-gradient-2" x1="0.001" y1="0.5" x2="0.999" y2="0.5" xlink:href="#linear-gradient"/>
    <linearGradient id="linear-gradient-3" x1="0.001" y1="0.5" x2="1.001" y2="0.5" xlink:href="#linear-gradient"/>
    <linearGradient id="linear-gradient-4" y1="0.5" x2="1" y2="0.5" xlink:href="#linear-gradient"/>
    <linearGradient id="linear-gradient-5" x1="0.51" y1="0.92" x2="0.486" y2="-0.109" gradientUnits="objectBoundingBox">
      <stop offset="0" stop-color="#73c7e2"/>
      <stop offset="1" stop-color="#314d9e"/>
    </linearGradient>
    <linearGradient id="linear-gradient-6" y1="0.5" x2="1" y2="0.5" xlink:href="#linear-gradient"/>
    <linearGradient id="linear-gradient-7" x1="0.577" y1="16.591" x2="0.935" y2="16.591" xlink:href="#linear-gradient"/>
    <linearGradient id="linear-gradient-8" x1="0.78" y1="0.087" x2="0.095" y2="0.885" xlink:href="#linear-gradient-5"/>
  </defs>
  <g id="Layer_2" data-name="Layer 2" transform="translate(0 0)">
    <g id="Layer_1" data-name="Layer 1" transform="translate(0 0)">
      <g id="Group_3" data-name="Group 3" transform="translate(970.17 9.89)" clip-path="url(#clip-path)">
        <rect id="Rectangle_11" data-name="Rectangle 11" width="1.769" height="9.41" transform="translate(4.906 4.346)" fill="#222370"/>
        <rect id="Rectangle_12" data-name="Rectangle 12" width="7.56" height="9.41" transform="translate(6.675 4.346)" fill="#222370"/>
        <rect id="Rectangle_13" data-name="Rectangle 13" width="6.635" height="29.235" transform="translate(0.04 0.164)" fill="#222370"/>
        <rect id="Rectangle_14" data-name="Rectangle 14" width="14.718" height="29.235" transform="translate(6.675 0.164)" fill="#222370"/>
        <rect id="Rectangle_15" data-name="Rectangle 15" width="0.241" height="29.235" transform="translate(21.433 0.164)" fill="#222370"/>
      </g>
      <g id="Group_4" data-name="Group 4" transform="translate(954.689)" clip-path="url(#clip-path-2)">
        <rect id="Rectangle_16" data-name="Rectangle 16" width="11.702" height="42.424" transform="translate(3.417 3.459)" fill="#222370"/>
        <rect id="Rectangle_17" data-name="Rectangle 17" width="30.763" height="42.424" transform="translate(15.079 3.459)" fill="#222370"/>
        <rect id="Rectangle_18" data-name="Rectangle 18" width="15.12" height="49.301" transform="translate(-0.041 0.001)" fill="#222370"/>
        <rect id="Rectangle_19" data-name="Rectangle 19" width="33.658" height="49.301" transform="translate(15.079 0.001)" fill="#222370"/>
        <rect id="Rectangle_20" data-name="Rectangle 20" width="0.523" height="49.301" transform="translate(48.777 0.001)" fill="#222370"/>
      </g>
      <path id="Path_15" data-name="Path 15" d="M148.264,249.5q-22.479,18.3-60.319,18.257-38.725,0-62.33-19.222Q0,227.989,0,190.471v-8.043H61.847a40.655,40.655,0,0,0,5.951,22.64,21.634,21.634,0,0,0,19.423,10.576q23.565,0,23.6-23.283a21.031,21.031,0,0,0-8.043-17.171,47.048,47.048,0,0,0-8.324-5.107l-4.665-2.252L63.134,156.612a175.245,175.245,0,0,1-22.64-11.1,92.489,92.489,0,0,1-18.98-14.275A60.761,60.761,0,0,1,3.7,87a63.5,63.5,0,0,1,26.983-52.88A93.494,93.494,0,0,1,88.83,15.345a97.274,97.274,0,0,1,35.829,6.716,72.865,72.865,0,0,1,29.878,20.83q15.12,18.618,16.085,47.974h-61.4C106.845,75.02,99.406,67.139,86.9,67.139q-21.353,0-21.353,19.061A19.061,19.061,0,0,0,67.8,96.494q3.659,6.233,22.318,15.4l25.7,11.541a195.516,195.516,0,0,1,22.479,11.7,87.5,87.5,0,0,1,17.975,14.275,60.922,60.922,0,0,1,16.407,43.631Q172.673,229.8,148.264,249.5Z" transform="translate(0 46.302)" fill="url(#linear-gradient)"/>
      <path id="Path_16" data-name="Path 16" d="M195.385,249.791q-22.479,18.337-60.319,18.3-38.725,0-62.33-19.222Q47,228.318,47,190.759v-8.043h61.968a40.414,40.414,0,0,0,5.951,22.6,21.594,21.594,0,0,0,19.423,10.616q23.565,0,23.6-23.283a21.031,21.031,0,0,0-8.043-17.171,47.049,47.049,0,0,0-8.324-5.107l-4.665-2.252-26.661-11.058a180.637,180.637,0,0,1-22.64-11.1,92.49,92.49,0,0,1-18.98-14.275A60.761,60.761,0,0,1,50.82,87.453,63.5,63.5,0,0,1,77.8,34.694,93.494,93.494,0,0,1,135.95,15.915,98.038,98.038,0,0,1,171.9,22.63,73.308,73.308,0,0,1,201.778,43.5q15.16,18.618,16.085,47.974H156.338q-3.579-23.766-22.318-23.766c-14.235,0-21.353,6.394-21.353,19.1A19.061,19.061,0,0,0,114.919,97.1q3.7,6.233,22.318,15.4l25.7,11.541a195.509,195.509,0,0,1,22.479,11.7,87.5,87.5,0,0,1,17.975,14.275,60.922,60.922,0,0,1,16.527,43.47Q219.914,230.087,195.385,249.791Z" transform="translate(141.999 48.024)" fill="url(#linear-gradient-2)"/>
      <path id="Path_17" data-name="Path 17" d="M350.732,136.772a76.927,76.927,0,0,1-20.106,30.32,82.276,82.276,0,0,1-34.462,18.015,161.813,161.813,0,0,1-39.248,4.021H228.767v78.978H166.84V15.41h82.8c8.043,0,14.718.2,20.106.523a174.682,174.682,0,0,1,20.709,2.332,77.208,77.208,0,0,1,37.036,15.683q29.677,25.173,29.717,66.833A100.811,100.811,0,0,1,350.732,136.772ZM282.129,77.1c-6.434-3.338-16.085-4.986-29.355-4.986H228.888v60.319h26.219q18.7,0,28.149-5.67,12.064-7.2,12.064-24.65T282.129,77.1Z" transform="translate(504.067 46.558)" fill="url(#linear-gradient-3)"/>
      <path id="Path_18" data-name="Path 18" d="M218.77,267.8V15.18h64.581V267.8Z" transform="translate(660.961 45.863)" fill="url(#linear-gradient-4)"/>
      <path id="Path_19" data-name="Path 19" d="M162.327,152.111,98.63,95.09l.161-71.86,64.582,52.276Z" transform="translate(297.987 70.185)" fill="url(#linear-gradient-5)"/>
      <path id="Path_20" data-name="Path 20" d="M162.809,189.887l-63.858.121L98.63,41.1l63.7,57.021Z" transform="translate(297.987 124.174)" fill="url(#linear-gradient-6)"/>
      <path id="Path_21" data-name="Path 21" d="M288.51,176.4l-80.747.483L114.47,84.677l44.6-39.127Z" transform="translate(345.844 137.619)" fill="url(#linear-gradient-7)"/>
      <path id="Path_22" data-name="Path 22" d="M372.14,6.17H289.986L103.56,164.366l43.872,39.288Z" transform="translate(312.882 18.642)" fill="url(#linear-gradient-8)"/>
    </g>
  </g>
</svg>
